<?xml version="1.0" encoding="UTF-8"?><svg xmlns="http://www.w3.org/2000/svg" xmlns:xlink="http://www.w3.org/1999/xlink" contentScriptType="text/ecmascript" width="375" zoomAndPan="magnify" contentStyleType="text/css" viewBox="0 0 375 374.999991" height="374.999991" preserveAspectRatio="xMidYMid meet" version="1.0"><defs><clipPath id="clip-0"><path d="M 10.644531 8.695312 L 365.394531 8.695312 L 365.394531 364.195312 L 10.644531 364.195312 Z M 10.644531 8.695312 " clip-rule="nonzero"/></clipPath></defs><g clip-path="url(#clip-0)"><path fill="rgb(0%, 0%, 0%)" d="M 365.257812 172.777344 C 365.265625 172.648438 365.242188 172.523438 365.199219 172.40625 C 365.199219 172.398438 365.203125 172.390625 365.199219 172.382812 L 329.847656 79.675781 C 329.84375 79.664062 329.828125 79.660156 329.824219 79.644531 C 329.765625 79.507812 329.683594 79.378906 329.558594 79.28125 L 251.816406 17.527344 C 251.695312 17.425781 251.546875 17.355469 251.386719 17.328125 C 251.371094 17.328125 251.359375 17.324219 251.347656 17.324219 L 187.890625 8.707031 C 187.769531 8.691406 187.636719 8.699219 187.511719 8.734375 L 157.269531 17.316406 L 156.410156 17.316406 C 156.234375 17.316406 156.070312 17.363281 155.929688 17.449219 C 155.929688 17.449219 155.929688 17.449219 155.925781 17.449219 L 155.15625 17.914062 L 80.714844 39.042969 C 80.691406 39.050781 80.675781 39.070312 80.65625 39.078125 C 80.554688 39.117188 80.464844 39.167969 80.382812 39.238281 C 80.347656 39.265625 80.316406 39.289062 80.285156 39.320312 C 80.269531 39.339844 80.246094 39.347656 80.234375 39.367188 L 15.042969 123.875 C 15.023438 123.902344 15.019531 123.933594 15.003906 123.960938 C 14.976562 123.996094 14.949219 124.03125 14.933594 124.070312 C 14.921875 124.097656 14.917969 124.125 14.910156 124.152344 C 14.890625 124.203125 14.882812 124.25 14.875 124.304688 C 14.871094 124.335938 14.855469 124.359375 14.851562 124.394531 L 10.75 198.714844 C 10.746094 198.78125 10.75 198.847656 10.757812 198.914062 L 16.769531 236.5 C 16.777344 236.550781 16.800781 236.589844 16.816406 236.640625 C 16.824219 236.671875 16.824219 236.703125 16.835938 236.734375 C 16.839844 236.742188 16.847656 236.746094 16.851562 236.757812 C 16.855469 236.765625 16.855469 236.777344 16.859375 236.785156 L 47.210938 294.515625 C 47.261719 294.613281 47.332031 294.703125 47.417969 294.78125 L 83.015625 326.207031 C 83.074219 326.273438 83.136719 326.328125 83.207031 326.375 L 124.371094 354.078125 C 124.484375 354.15625 124.613281 354.203125 124.746094 354.226562 L 189.328125 364.253906 L 189.335938 364.257812 C 189.335938 364.257812 189.339844 364.257812 189.339844 364.257812 C 189.34375 364.257812 189.34375 364.257812 189.351562 364.257812 C 189.398438 364.265625 189.445312 364.269531 189.492188 364.269531 C 189.492188 364.269531 189.492188 364.269531 189.496094 364.269531 C 189.558594 364.269531 189.625 364.261719 189.683594 364.25 C 189.683594 364.25 189.6875 364.25 189.6875 364.246094 C 189.691406 364.246094 189.691406 364.246094 189.691406 364.246094 C 189.695312 364.246094 189.695312 364.246094 189.695312 364.246094 C 189.695312 364.246094 189.699219 364.246094 189.699219 364.246094 C 189.703125 364.242188 189.707031 364.242188 189.714844 364.242188 C 189.71875 364.242188 189.722656 364.238281 189.71875 364.238281 C 189.71875 364.238281 189.722656 364.238281 189.722656 364.238281 L 189.726562 364.238281 C 189.730469 364.238281 189.730469 364.234375 189.730469 364.234375 C 189.730469 364.234375 189.734375 364.234375 189.734375 364.234375 C 189.734375 364.238281 189.738281 364.234375 189.738281 364.234375 C 189.742188 364.230469 189.746094 364.230469 189.746094 364.230469 L 295.277344 333.433594 C 295.316406 333.421875 295.339844 333.382812 295.375 333.367188 C 295.476562 333.320312 295.554688 333.261719 295.636719 333.183594 C 295.671875 333.148438 295.726562 333.140625 295.753906 333.101562 L 359.957031 248.546875 C 360.058594 248.414062 360.101562 248.257812 360.121094 248.101562 C 360.125 248.082031 360.140625 248.070312 360.144531 248.050781 Z M 358.339844 247.253906 L 330.570312 254.261719 L 363.03125 178.132812 Z M 245.667969 236.46875 L 143.351562 200.515625 L 220.519531 145.019531 Z M 220.523438 142.027344 L 143.574219 91.761719 L 243.621094 63.179688 Z M 219.421875 143.523438 L 142.296875 198.988281 L 142.296875 93.144531 Z M 140.4375 199.3125 L 52.90625 156.40625 L 140.4375 93.246094 Z M 159.394531 302.167969 L 75.953125 255.476562 L 140.742188 202.511719 Z M 142.574219 202.210938 L 245.105469 238.238281 L 161.308594 302.296875 Z M 246.230469 239.71875 L 251.632812 316.316406 L 162.984375 303.347656 Z M 247.421875 235.824219 L 222.320312 144.546875 L 307.683594 153.066406 Z M 308.875 154.585938 L 327.804688 254.417969 L 248.625 237.328125 Z M 329.324219 252.445312 L 310.605469 153.746094 L 363.09375 173.246094 Z M 309.003906 150.164062 L 247.136719 63.238281 L 327.828125 80.710938 Z M 307.445312 151.175781 L 222.269531 142.675781 L 245.34375 63.917969 Z M 142.585938 90.113281 L 157.078125 19.609375 L 242.417969 61.589844 Z M 140.667969 90.214844 L 75.203125 68.355469 L 155.070312 20.136719 Z M 139.355469 91.734375 L 52.625 154.320312 L 73.660156 69.796875 Z M 50.582031 154.824219 L 17.132812 124.421875 L 71.308594 71.550781 Z M 72.171875 68.113281 L 24.578125 114.558594 L 78.800781 44.269531 Z M 50 156.804688 L 18.539062 231.90625 L 16.746094 126.574219 Z M 50.855469 159.5625 L 73.019531 254.203125 L 18.925781 235.796875 Z M 52.460938 158.253906 L 139.65625 200.996094 L 74.875 253.957031 Z M 158.257812 303.664062 L 84.492188 324.410156 L 75.480469 257.339844 Z M 160.171875 305.054688 L 187.660156 361.703125 L 86.769531 325.699219 Z M 189.839844 361.933594 L 162.273438 305.121094 L 250.253906 317.992188 Z M 253.445312 315.558594 L 248.050781 239.101562 L 326.890625 256.117188 Z M 326.578125 258.757812 L 294.519531 331.375 L 254.511719 317.082031 Z M 329.648438 256.410156 L 356.878906 249.535156 L 299.066406 325.675781 Z M 310.507812 151.726562 L 329.128906 83.011719 L 362.730469 171.132812 Z M 251.917969 19.980469 L 325.28125 78.257812 L 246.03125 61.097656 Z M 187.835938 10.570312 L 237.5 17.316406 L 164.070312 17.316406 Z M 250.15625 19.171875 L 244.25 60.421875 L 160.398438 19.171875 Z M 74.523438 66.59375 L 81.726562 40.6875 L 149.125 21.558594 Z M 12.605469 198.71875 L 15.285156 150.191406 L 16.527344 223.257812 Z M 48.777344 293.5 L 24.148438 246.652344 L 77.734375 319.074219 Z M 20.199219 238.191406 L 73.464844 256.3125 L 82.3125 322.136719 Z M 90.34375 328.945312 L 179.9375 360.914062 L 125.234375 352.417969 Z M 252.792969 318.441406 L 292.011719 332.453125 L 194.347656 360.957031 Z M 252.792969 318.441406 " fill-opacity="1" fill-rule="nonzero"/></g></svg>